# xmcd
#
# Track frame offsets: 
#        150
#        12035
#        23381
#        37872
#        48296
#        60232
#        72825
#        83853
#        94292
#        105789
#        117128
#        127664
#        138904
#
# Disc length: 2012 seconds
#
# Revision: 0
# Processed by: cddbd v1.5.2PL0 Copyright (c) Steve Scherf et al.
# Submitted via: ExactAudioCopy v0.95a5
#
DISCID=8707da0d
DTITLE=Patsy Cline - Collector's Edition (disk 1)
DYEAR=2004
DGENRE=Country
TTITLE0=Walkin' After Midnight
TTITLE1=Just Out of Reach
TTITLE2=Then You'll Know
TTITLE3=I Love You Honey
TTITLE4=If I Could Only Stay Asleep
TTITLE5=Fingerprints
TTITLE6=There He Goes
TTITLE7=He'll Do for You (What He's Done for Me)
TTITLE8=Crazy Dreams
TTITLE9=Dear God
TTITLE10=Lovesick Blues
TTITLE11=Stop the World and Let Me Off
TTITLE12=Today, Tomorrow, Forever
EXTD=
EXTT0=
EXTT1=
EXTT2=
EXTT3=
EXTT4=
EXTT5=
EXTT6=
EXTT7=
EXTT8=
EXTT9=
EXTT10=
EXTT11=
EXTT12=
PLAYORDER=
